{
    "asset" : {
        "generator" : "Khronos glTF Blender I/O v1.7.33",
        "version" : "2.0"
    },
    "scene" : 0,
    "scenes" : [
        {
            "name" : "Scene",
            "nodes" : [
                0
            ]
        }
    ],
    "nodes" : [
        {
            "mesh" : 0,
            "name" : "blazor3d"
        }
    ],
    "materials" : [
        {
            "doubleSided" : true,
            "name" : "blazor3dmat",
            "pbrMetallicRoughness" : {
                "baseColorFactor" : [
                    1,
                    0.13286831974983215,
                    0,
                    1
                ],
                "metallicFactor" : 0.5,
                "roughnessFactor" : 0.5
            }
        }
    ],
    "meshes" : [
        {
            "name" : "rect16456",
            "primitives" : [
                {
                    "attributes" : {
                        "POSITION" : 0,
                        "NORMAL" : 1,
                        "TEXCOORD_0" : 2
                    },
                    "indices" : 3,
                    "material" : 0
                }
            ]
        }
    ],
    "accessors" : [
        {
            "bufferView" : 0,
            "componentType" : 5126,
            "count" : 7930,
            "max" : [
                0.73614501953125,
                0.7211170196533203,
                0.0812658742070198
            ],
            "min" : [
                -0.6749950647354126,
                -0.6138945817947388,
                -0.11873424053192139
            ],
            "type" : "VEC3"
        },
        {
            "bufferView" : 1,
            "componentType" : 5126,
            "count" : 7930,
            "type" : "VEC3"
        },
        {
            "bufferView" : 2,
            "componentType" : 5126,
            "count" : 7930,
            "type" : "VEC2"
        },
        {
            "bufferView" : 3,
            "componentType" : 5123,
            "count" : 13044,
            "type" : "SCALAR"
        }
    ],
    "bufferViews" : [
        {
            "buffer" : 0,
            "byteLength" : 95160,
            "byteOffset" : 0
        },
        {
            "buffer" : 0,
            "byteLength" : 95160,
            "byteOffset" : 95160
        },
        {
            "buffer" : 0,
            "byteLength" : 63440,
            "byteOffset" : 190320
        },
        {
            "buffer" : 0,
            "byteLength" : 26088,
            "byteOffset" : 253760
        }
    ],
    "buffers" : [
        {
            "byteLength" : 279848,
            "uri" : "data:application/octet-stream;base64,"
        }
    ]
}
