<?xml version="1.0" encoding="UTF-8" standalone="no"?>
<!-- Created with Inkscape (http://www.inkscape.org/) -->

<svg
   width="132.29167mm"
   height="125.1858mm"
   viewBox="0 0 132.29167 125.1858"
   version="1.1"
   id="svg5"
   inkscape:version="1.1.1 (3bf5ae0d25, 2021-09-20)"
   sodipodi:docname="Blazor3D-Inkscape.svg"
   xmlns:inkscape="http://www.inkscape.org/namespaces/inkscape"
   xmlns:sodipodi="http://sodipodi.sourceforge.net/DTD/sodipodi-0.dtd"
   xmlns="http://www.w3.org/2000/svg"
   xmlns:svg="http://www.w3.org/2000/svg">
  <sodipodi:namedview
     id="namedview7"
     pagecolor="#ffffff"
     bordercolor="#666666"
     borderopacity="1.0"
     inkscape:pageshadow="2"
     inkscape:pageopacity="0.0"
     inkscape:pagecheckerboard="0"
     inkscape:document-units="mm"
     showgrid="false"
     showguides="false"
     inkscape:zoom="0.73406286"
     inkscape:cx="-60.621511"
     inkscape:cy="343.97599"
     inkscape:window-width="1920"
     inkscape:window-height="1009"
     inkscape:window-x="-8"
     inkscape:window-y="-8"
     inkscape:window-maximized="1"
     inkscape:current-layer="layer1">
    <sodipodi:guide
       position="-0.90109222,125.72646"
       orientation="0,793.70079"
       id="guide16317" />
    <sodipodi:guide
       position="209.0989,125.72646"
       orientation="1122.5197,0"
       id="guide16319" />
    <sodipodi:guide
       position="209.0989,-171.27353"
       orientation="0,-793.70079"
       id="guide16321" />
    <sodipodi:guide
       position="-0.90109222,-171.27353"
       orientation="-1122.5197,0"
       id="guide16323" />
  </sodipodi:namedview>
  <defs
     id="defs2" />
  <g
     inkscape:label="Layer 1"
     inkscape:groupmode="layer"
     id="layer1"
     transform="translate(-0.90109224,-0.54066434)">
    <g
       id="g17063"
       transform="matrix(0.7781255,0,0,0.7781255,-0.64417287,-104.16987)"
       style="fill:#8800ff;fill-opacity:1">
      <g
         id="g16288"
         transform="matrix(1.0129156,0,0,1.0129156,-61.425069,-59.792269)"
         style="fill:#8800ff;fill-opacity:1">
        <path
           style="fill:#8800ff;stroke-width:0.180219;fill-opacity:1"
           d="m 96.136633,252.77705 c -1.591116,-0.50918 -2.78848,-1.25308 -3.929507,-2.44134 -4.578768,-4.76832 -2.808073,-12.23463 3.488868,-14.71115 1.03021,-0.40518 1.326591,-0.42843 6.271656,-0.49198 3.86388,-0.0497 5.25711,-0.0113 5.45161,0.15012 0.3933,0.32641 0.37733,9.23291 -0.0197,10.97846 -0.68779,3.02397 -3.23154,5.64486 -6.37479,6.56812 -1.300354,0.38195 -3.608455,0.35729 -4.888152,-0.0522 z"
           id="path279" />
        <path
           style="fill:#8800ff;stroke-width:0.180219;fill-opacity:1"
           d="m 93.983921,281.39495 c -13.960484,-1.79554 -25.82345,-11.98764 -29.977363,-25.7551 -1.057692,-3.50553 -1.404155,-6.10374 -1.404155,-10.53009 0,-2.11266 0.09177,-4.52064 0.203932,-5.35109 2.020162,-14.95712 12.781028,-27.38413 26.998063,-31.17827 3.611071,-0.9637 4.465857,-1.04504 13.010222,-1.23805 11.15405,-0.25197 13.47483,-0.40628 16.0678,-1.0684 5.85434,-1.49489 10.82648,-4.27484 15.57758,-8.70948 0.61061,-0.56994 1.16069,-1.03626 1.2224,-1.03626 0.25591,0 0.0793,2.02384 -0.3382,3.8747 -0.67048,2.97257 -1.64544,5.65408 -3.1046,8.53886 -0.721,1.42541 -1.3109,2.7546 -1.3109,2.95376 0,0.3297 0.0847,0.35294 0.94615,0.25965 0.94255,-0.10209 4.06914,-1.09943 6.2249,-1.98567 1.66972,-0.68644 4.77481,-2.4985 6.54482,-3.81943 4.45742,-3.3265 7.77695,-7.1468 10.52351,-12.11103 0.69384,-1.25408 1.36048,-2.31228 1.48141,-2.35155 0.66759,-0.2168 3.06922,5.65768 4.19619,10.26406 0.94746,3.87264 1.16032,5.78441 1.1597,10.4161 -5.3e-4,4.62472 -0.21043,6.59549 -1.17039,10.99332 -1.05866,4.85007 -2.3952,8.61982 -4.76016,13.42628 -6.12045,12.43893 -16.31797,22.06656 -29.20128,27.56937 -7.75826,3.31375 -15.89175,4.8078 -24.75026,4.54636 -3.780404,-0.11157 -5.874208,-0.38806 -8.324964,-1.09932 -7.938595,-2.30399 -14.428533,-8.49571 -17.020591,-16.2385 -1.115001,-3.33064 -1.481157,-7.67047 -0.919323,-10.89617 0.569036,-3.26705 1.928449,-6.59152 3.921133,-9.5892 1.346805,-2.02606 4.352191,-5.08353 6.31135,-6.42073 2.771243,-1.89148 6.086316,-3.27158 9.466349,-3.94096 2.36927,-0.46921 6.941226,-0.42359 9.372006,0.0935 10.58553,2.25192 18.49731,11.0611 19.48229,21.6921 0.52728,5.6909 -1.45705,9.33176 -5.08595,9.33176 -2.16505,0 -3.83732,-1.0004 -4.7332,-2.83151 -0.48184,-0.98484 -0.50351,-1.1541 -0.62819,-4.90631 -0.071,-2.13745 -0.13524,-5.39863 -0.1427,-7.24707 l -0.0135,-3.3608 -0.5516,-1.05455 c -1.04741,-2.00248 -2.68976,-3.29128 -4.67358,-3.66751 -1.27056,-0.24095 -10.419345,-0.23109 -12.197916,0.0131 -3.436925,0.47198 -5.995086,1.77859 -8.618472,4.40198 -2.005981,2.00598 -2.998665,3.55841 -3.784529,5.91853 -2.601114,7.81172 1.657912,16.59771 9.324224,19.23502 2.062681,0.70959 3.830868,0.94935 6.174502,0.83725 2.325671,-0.11126 3.796671,-0.52028 6.037321,-1.67873 1.7457,-0.90255 3.77575,-2.37048 4.22373,-3.05416 l 0.30338,-0.46302 1.5765,1.50024 c 2.56888,2.44461 4.46795,3.14594 8.08734,2.98664 3.29202,-0.14486 5.84337,-1.35528 8.14019,-3.86186 2.24311,-2.44796 3.07635,-4.97121 3.07839,-9.32215 0.007,-15.44225 -10.01546,-28.04647 -24.91411,-31.33104 -1.63471,-0.36039 -2.34431,-0.4071 -6.172304,-0.40623 -4.722001,0.001 -5.722157,0.13062 -9.173308,1.18832 -10.768707,3.30034 -18.742923,12.09302 -21.228357,23.40719 -0.371533,1.6913 -0.414317,2.34216 -0.402776,6.12743 0.01113,3.64884 0.06773,4.49084 0.408868,6.0822 0.597246,2.78604 1.354137,4.91537 2.738664,7.70453 3.197339,6.44109 7.973751,11.11895 14.629466,14.32758 4.262633,2.05497 7.45295,2.79202 13.252717,3.06173 3.56752,0.1659 9.10237,0 11.93947,-0.35896 8.60171,-1.08677 17.41355,-4.03164 24.75055,-8.27148 1.07411,-0.62069 1.98746,-1.094 2.02967,-1.05177 0.13357,0.13356 -3.00979,3.06445 -4.91139,4.57941 -7.26327,5.78641 -15.64352,9.3518 -25.31611,10.77076 -2.11074,0.30967 -12.362176,0.3692 -14.574561,0.0846 z"
           id="path355" />
      </g>
      <path
         id="rect16347"
         style="fill:#8800ff;stroke-width:0.38388;fill-opacity:1"
         d="m 90.760394,192.8803 v 84.77913 h 25.216276 v -60.43207 h 8.50935 c 14.4507,0 21.6759,5.77561 21.6759,17.32789 0,12.29758 -7.34946,18.44664 -22.04861,18.44664 h -4.03689 v 24.9058 c 3.47811,0.16563 5.98301,0.24825 7.51503,0.24825 13.04291,0 23.70472,-4.05794 31.98593,-12.17352 8.2812,-8.11558 12.42178,-18.59131 12.42178,-31.42717 0,-13.41555 -4.84455,-24.03572 -14.53356,-31.86146 -8.15699,-6.54215 -19.44014,-9.81349 -33.84945,-9.81349 z" />
      <path
         id="rect16456"
         style="fill:#8800ff;stroke-width:0.332973;fill-opacity:1"
         d="m 38.458391,231.00405 v 18.14958 h 9.513692 l -6.363498,12.39169 c 4.99828,0 8.988638,0.78271 11.970809,2.34892 2.982211,1.53551 4.473807,3.60856 4.473807,6.21892 0,2.27255 -1.00849,4.17672 -3.024597,5.71221 -1.974124,1.53551 -4.431306,2.30325 -7.37147,2.30325 -2.68819,0 -5.859475,-0.82903 -9.513691,-2.48738 v 17.78085 c 4.830298,1.35125 9.703069,2.02682 14.617343,2.02682 8.904561,0 16.401488,-2.07258 22.491868,-6.21843 6.09037,-4.17658 9.13561,-9.29021 9.13561,-15.3401 0,-4.05373 -1.155,-7.55468 -3.46515,-10.50284 -2.26813,-2.97887 -5.92189,-5.71209 -10.9622,-8.1996 l 14.04927,-24.18389 z" />
    </g>
  </g>
</svg>
